<?xml version="1.0"?><svg version="1.2" baseProfile="tiny-ps" viewBox="0 0 300 300" xmlns="http://www.w3.org/2000/svg" xmlns:xlink="http://www.w3.org/1999/xlink"><title>NiftyInvest</title><g><g fill="#feffff" transform="matrix(.1 0 0 -.1 0 300)"><path d="M1377 2910c-367-34-688-196-935-474-181-203-294-445-338-727l-17-104 6-150 6-150 16-75c41-189 107-344 215-510l62-95 117-115 116-115 80-53c152-101 362-188 540-223l70-14h370l85 18c546 117 967 520 1095 1049l24 99 12 118 12 118-12 116c-73 722-627 1253-1346 1290l-90 5-88-8zm418-140c503-119 878-514 982-1034l17-81-1-150v-150l-22-103c-57-270-181-493-378-683l-88-85-85-56c-143-94-293-159-454-194l-71-16-151-5-152-6-103 18-104 17-90 30c-112 37-247 105-344 172l-75 51-90 90-91 90-56 80c-114 160-187 336-220 529l-19 108v235l15 89c8 49 29 132 46 184 159 503 616 865 1134 899l100 6 106-7 106-6 88-22zm-501-55c-271-50-485-163-676-358-162-165-273-377-323-612l-17-80-5-110-6-110 18-110 17-110 33-101c135-412 474-718 904-815l96-22h165l165-1 110 27 109 28 86 36c390 167 663 509 735 917l15 89v244l-15 89c-89 510-500 917-1009 999l-91 15-120-1-120-1-71-13z"/></g><g fill="#aad0f2" transform="matrix(.1 0 0 -.1 0 300)"><path d="M1377 2910c-367-34-688-196-935-474-181-203-294-445-338-727l-17-104 6-150 6-150 16-75c41-189 107-344 215-510l62-95 117-115 116-115 80-53c152-101 362-188 540-223l70-14h370l85 18c546 117 967 520 1095 1049l24 99 12 118 12 118-12 116c-73 722-627 1253-1346 1290l-90 5-88-8zm418-140c503-119 878-514 982-1034l17-81-1-150v-150l-22-103c-57-270-181-493-378-683l-88-85-85-56c-143-94-293-159-454-194l-71-16-151-5-152-6-103 18-104 17-90 30c-112 37-247 105-344 172l-75 51-90 90-91 90-56 80c-114 160-187 336-220 529l-19 108v235l15 89c8 49 29 132 46 184 159 503 616 865 1134 899l100 6 106-7 106-6 88-22zm-501-55c-271-50-485-163-676-358-162-165-273-377-323-612l-17-80-5-110-6-110 18-110 17-110 33-101c135-412 474-718 904-815l96-22h165l165-1 110 27 109 28 86 36c390 167 663 509 735 917l15 89v244l-15 89c-89 510-500 917-1009 999l-91 15-120-1-120-1-71-13zm824-507-3-133h-290l-3 133-3 132h302l-3-132zm-380-380 3-148h-611V700H830v1280l453-2 452-3 3-147zm382-655V700h-300v628l1 627 149-155 150-155v-472z"/></g><g fill="#71ade4" transform="matrix(.1 0 0 -.1 0 300)"><path d="M1377 2910c-367-34-688-196-935-474-181-203-294-445-338-727l-17-104 6-150 6-150 16-75c41-189 107-344 215-510l62-95 117-115 116-115 80-53c152-101 362-188 540-223l70-14h370l85 18c546 117 967 520 1095 1049l24 99 12 118 12 118-12 116c-73 722-627 1253-1346 1290l-90 5-88-8zm418-140c503-119 878-514 982-1034l17-81-1-150v-150l-22-103c-57-270-181-493-378-683l-88-85-85-56c-143-94-293-159-454-194l-71-16-151-5-152-6-103 18-104 17-90 30c-112 37-247 105-344 172l-75 51-90 90-91 90-56 80c-114 160-187 336-220 529l-19 108v235l15 89c8 49 29 132 46 184 159 503 616 865 1134 899l100 6 106-7 106-6 88-22zm-501-55c-271-50-485-163-676-358-162-165-273-377-323-612l-17-80-5-110-6-110 18-110 17-110 33-101c135-412 474-718 904-815l96-22h165l165-1 110 27 109 28 86 36c390 167 663 509 735 917l15 89v244l-15 89c-89 510-500 917-1009 999l-91 15-120-1-120-1-71-13zm826-505v-140h-300v280h300v-140zm-380-385v-155h-600l-1-457c-1-252-2-469-3-483l-1-25-152-3-153-3-1 438c0 241-2 525-5 631s-2 197 1 202l6 10h909v-155zm379-647 1-478h-310v1274l154-160 155-159v-477z"/></g><g fill="#4995df" transform="matrix(.1 0 0 -.1 0 300)"><path d="M1377 2910c-367-34-688-196-935-474-181-203-294-445-338-727l-17-104 6-150 6-150 16-75c41-189 107-344 215-510l62-95 117-115 116-115 80-53c152-101 362-188 540-223l70-14h370l85 18c546 117 967 520 1095 1049l24 99 12 118 12 118-12 116c-73 722-627 1253-1346 1290l-90 5-88-8zm418-140c503-119 878-514 982-1034l17-81-1-150v-150l-22-103c-57-270-181-493-378-683l-88-85-85-56c-143-94-293-159-454-194l-71-16-151-5-152-6-103 18-104 17-90 30c-112 37-247 105-344 172l-75 51-90 90-91 90-56 80c-114 160-187 336-220 529l-19 108v235l15 89c8 49 29 132 46 184 159 503 616 865 1134 899l100 6 106-7 106-6 88-22zm-501-55c-271-50-485-163-676-358-162-165-273-377-323-612l-17-80-5-110-6-110 18-110 17-110 33-101c135-412 474-718 904-815l96-22h165l165-1 110 27 109 28 86 36c390 167 663 509 735 917l15 89v244l-15 89c-89 510-500 917-1009 999l-91 15-120-1-120-1-71-13zm831-510v-140h-310l-3 129c-1 72 0 136 2 143l6 14 152-3 153-3v-140zm-380-375v-155l-302-3-303-2V689l-157 3-158 3-3 635c-1 349 0 641 3 648l4 12 458-2 458-3v-155zm383-659-3-476-157-3-158-3v643l1 643 160-164 159-163-2-477z"/></g><g fill="#3c97ed" transform="matrix(.1 0 0 -.1 0 300)"><path d="M1384 2900c-39-4-94-11-122-15l-52-7v-20l-26 6-26 7-27-18c-14-9-32-16-40-15-7 2-20 0-30-4-9-4-23-8-31-9s-45-16-81-34c-36-17-71-31-78-31-6 0-14-7-17-15l-6-15-9 6-9 5-46-30c-25-17-57-38-72-45-15-8-43-29-62-46s-47-38-63-48c-15-9-30-24-33-34s-9-18-13-18c-14 0-181-179-181-194 0-6-8-19-19-30-10-12-40-61-66-111-26-49-51-94-55-100-13-18-70-180-80-231-28-129-31-147-26-160l5-14h-18l-2-42c-7-172 0-298 24-408 10-41 17-79 17-83 0-5 4-6 9-3l8 5v-27c0-32 48-162 93-252 46-91 130-216 185-275 58-63 51-57 110-113 51-48 57-53 159-130 61-47 201-122 228-122 9 0 18-4 20-9 6-16 150-63 268-87l115-23 153-1h153l122 21 122 22 47 22c26 12 63 26 82 29 20 4 36 10 36 15 0 4 17 13 39 19 21 7 55 23 75 37s40 25 43 25c9 0 114 70 162 109 72 58 182 171 236 241 27 36 53 67 57 68 4 2 8 8 8 13s16 33 35 63 35 59 35 64 11 29 24 53c53 96 88 213 126 423l10 59v242l-25 120c-13 66-31 143-38 171-17 61-105 258-118 262-5 2-9 9-9 15 0 18-108 173-135 193-14 10-25 23-25 29-1 5-18 30-40 53l-39 44-11-7-10-6 2 9c4 13-50 62-68 62h-14v11c0 7-8 18-17 26-59 46-253 160-253 148 0-4-13 3-29 14-16 12-34 21-40 21s-19 4-29 9c-32 16-67 29-92 35-14 3-48 11-75 19-61 18-285 48-340 46-22-1-72-5-111-9zm356-109c47-11 103-25 125-31 22-7 56-13 75-13h35l-14-5-13-4 46-24c26-13 56-24 67-24h19v-10c0-5 4-10 9-10 10 0 135-76 197-120 23-16 79-67 126-112l85-83 54-78c85-123 159-257 159-288 0-11 4-19 9-19s11-12 14-27c3-16 15-62 27-103 34-119 39-155 39-320l1-155-11-65c-9-60-31-147-49-195-4-11-12-36-19-56l-11-36 6-19 6-19-9 13-10 13-46-95c-26-51-58-107-72-124-14-16-25-32-25-35 0-4-10-17-22-30-13-14-43-49-68-79l-45-55-105-87c-58-47-123-96-145-107-22-12-47-27-55-33-8-7-46-25-85-40-124-49-145-59-145-65 0-3-21-7-46-8-26-1-61-7-79-13-61-20-81-23-231-27l-151-5-75 17c-42 9-86 18-99 20-37 5-135 32-157 44l-19 10-7-7-7-6-7 9c-4 6-38 25-77 44-113 54-256 151-321 219l-23 24-10-7-11-6v34l-37 37c-21 20-54 60-73 88s-38 51-42 52c-5 0-8 5-8 11s-11 25-24 42c-57 76-147 304-177 452l-13 60v180l1 180 27 100c69 253 156 425 285 564 18 20 41 45 50 56s50 49 91 84c41 36 74 68 73 72l-2 7 19-5 20-5v32h17c9 0 24 6 32 14 21 19 172 96 189 96 6 0 12 4 12 9v9l51 12 50 12-4 12-4 11 31 2c17 0 69 8 116 16l85 15 160 1 160 1 85-19zm290-11c0-5-4-10-9-10-6 0-13 5-16 10l-6 10h15c9 0 16-4 16-10zm-742-72-58-11v-18l-19 6-18 6-24-11c-13-5-35-18-49-27l-24-18 8 13 7 12h-10c-12 0-75-26-111-46-14-8-53-28-88-44l-64-29 7-11 6-10h-42l-5-15c-4-8-12-15-19-15-36 0-282-253-279-287l2-13h-23l-35-62c-19-35-40-74-46-88-42-91-54-121-54-133 0-7-5-18-11-24s-12-24-13-40c-2-17-6-35-10-42-9-15-22-104-36-250l-10-105 10-11c5-6 8-26 8-45-2-46 21-172 33-185 5-5 9-24 9-43v-33l12 7 11 7-6-17-7-17 9-17c5-9 17-35 26-57 34-81 56-124 71-135 7-7 14-18 14-24 0-7 11-28 25-47s33-45 42-59c49-68 190-210 210-210 7 0 13-4 13-10 0-5 39-35 86-66l87-55 14 5 14 6-6-10-6-9 30-16c17-8 36-15 44-15s36-12 63-26l48-26 33-1c18-1 33-4 33-8 0-3 35-12 78-19l77-15h320l65 14c71 14 222 61 230 71 3 3 32 17 65 30 51 20 106 51 125 70 11 11 70 50 75 50 10 0 69 55 150 136 80 82 80 82 126 151 66 100 89 141 89 157 0 9 4 16 9 16s11 8 14 17c3 10 19 56 35 103 17 47 38 126 48 175l16 90 1 110c1 120-8 218-25 280-6 22-12 49-14 60-10 70-136 339-170 363-5 4-16 20-24 37-8 16-57 73-109 127l-94 98h-13c-8 0-14 5-14 10 0 6-7 10-15 10s-15 4-15 9c0 17-199 137-255 154-11 3-51 17-90 31-38 13-73 22-77 20-4-3-29 3-55 12l-48 16-175 3-175 3-57-10zm559-74c-3-3-12-4-19-1l-13 5 19 1c11 1 17-2 13-5zm283-416 5-138-10-12-10-13h-290l-10 9-10 9 2 134c1 73 5 138 8 144l6 10 152-3 152-3 5-137zm37 110-5-13v50l5-12c2-7 2-19 0-25zm-422-498v-165l-270-2c-148-2-285-3-303-3h-33l1-481c1-265-1-483-4-486-2-2-63-4-135-4H870v-24l-8 11c-4 7-15 13-24 15l-16 4-4 645-3 645 445 5c245 3 454 5 465 5h20v-165zm238-21 147-152 2-469c0-257 1-474 2-480l1-13-145-3-145-3-8-8-9-9-16 16-17 17 3 638 2 638 18-10c9-5 83-78 165-162zm-53-1419c0-5-2-10-4-10-3 0-8 5-11 10l-6 10h10c6 0 11-4 11-10z"/></g></g></svg>